<svg width="49" height="49" viewBox="0 0 49 49" fill="none" xmlns="http://www.w3.org/2000/svg">
<path d="M44.8621 23.8413L26.8621 5.8413C26.6523 5.63129 26.3849 5.48823 26.0938 5.43026C25.8026 5.37228 25.5009 5.40199 25.2266 5.51562C24.9524 5.62925 24.718 5.82169 24.5532 6.06858C24.3884 6.31547 24.3006 6.60571 24.3008 6.90255V14.4026H13.8008C13.403 14.4026 13.0214 14.5606 12.7401 14.8419C12.4588 15.1232 12.3008 15.5048 12.3008 15.9026V33.9026C12.3008 34.3004 12.4588 34.682 12.7401 34.9633C13.0214 35.2446 13.403 35.4026 13.8008 35.4026H24.3008V42.9026C24.3006 43.1994 24.3884 43.4897 24.5532 43.7366C24.718 43.9835 24.9524 44.1759 25.2266 44.2895C25.5009 44.4032 25.8026 44.4329 26.0938 44.3749C26.3849 44.3169 26.6523 44.1739 26.8621 43.9638L44.8621 25.9638C45.0015 25.8245 45.1122 25.6591 45.1876 25.477C45.2631 25.2949 45.302 25.0997 45.302 24.9026C45.302 24.7055 45.2631 24.5103 45.1876 24.3282C45.1122 24.1461 45.0015 23.9807 44.8621 23.8413ZM27.3008 39.282V33.9026C27.3008 33.5048 27.1428 33.1232 26.8615 32.8419C26.5802 32.5606 26.1986 32.4026 25.8008 32.4026H15.3008V17.4026H25.8008C26.1986 17.4026 26.5802 17.2446 26.8615 16.9633C27.1428 16.6819 27.3008 16.3004 27.3008 15.9026V10.5232L41.6802 24.9026L27.3008 39.282ZM9.30078 15.9026V33.9026C9.30078 34.3004 9.14275 34.682 8.86144 34.9633C8.58014 35.2446 8.19861 35.4026 7.80078 35.4026C7.40296 35.4026 7.02143 35.2446 6.74012 34.9633C6.45882 34.682 6.30078 34.3004 6.30078 33.9026V15.9026C6.30078 15.5048 6.45882 15.1232 6.74012 14.8419C7.02143 14.5606 7.40296 14.4026 7.80078 14.4026C8.19861 14.4026 8.58014 14.5606 8.86144 14.8419C9.14275 15.1232 9.30078 15.5048 9.30078 15.9026Z" fill="#444AE1"/>
</svg>
