<svg width="49" height="49" viewBox="0 0 49 49" fill="none" xmlns="http://www.w3.org/2000/svg">
<path opacity="0.4" d="M42.3009 11.4028V39.9028H6.3009V9.9028H40.8009C41.1987 9.9028 41.5803 10.0608 41.8616 10.3421C42.1429 10.6234 42.3009 11.005 42.3009 11.4028Z" fill="#40C98B"/>
<path d="M43.8009 39.9028C43.8009 40.3006 43.6429 40.6822 43.3616 40.9635C43.0803 41.2448 42.6987 41.4028 42.3009 41.4028H6.3009C5.90308 41.4028 5.52155 41.2448 5.24024 40.9635C4.95894 40.6822 4.8009 40.3006 4.8009 39.9028V9.9028C4.8009 9.50498 4.95894 9.12345 5.24024 8.84214C5.52155 8.56084 5.90308 8.4028 6.3009 8.4028C6.69873 8.4028 7.08026 8.56084 7.36156 8.84214C7.64287 9.12345 7.8009 9.50498 7.8009 9.9028V27.5972L17.3128 19.2778C17.5716 19.0512 17.9005 18.9205 18.2442 18.9075C18.588 18.8946 18.9257 19.0001 19.2009 19.2066L30.2278 27.4772L41.3128 17.7778C41.4581 17.6339 41.6313 17.5213 41.8218 17.4468C42.0123 17.3724 42.216 17.3376 42.4204 17.3447C42.6247 17.3519 42.8255 17.4007 43.0103 17.4883C43.1951 17.5759 43.3601 17.7003 43.495 17.854C43.63 18.0076 43.7321 18.1872 43.7951 18.3818C43.8581 18.5764 43.8806 18.7818 43.8614 18.9854C43.8421 19.1889 43.7813 19.3864 43.6829 19.5657C43.5845 19.745 43.4505 19.9022 43.289 20.0278L31.289 30.5278C31.0302 30.7544 30.7013 30.8851 30.3576 30.8981C30.0138 30.9111 29.6761 30.8055 29.4009 30.5991L18.374 22.3322L7.8009 31.5834V38.4028H42.3009C42.6987 38.4028 43.0803 38.5608 43.3616 38.8421C43.6429 39.1234 43.8009 39.505 43.8009 39.9028Z" fill="#444AE1"/>
</svg>
