<svg width="1085" height="320" viewBox="0 0 1085 320" fill="none" xmlns="http://www.w3.org/2000/svg">
<path fill-rule="evenodd" clip-rule="evenodd" d="M0.898757 81.1736C1.67666 79.2938 3.51057 78.068 5.54492 78.068H82.745C85.5221 78.068 87.7733 80.3192 87.7733 83.0963V160.196C87.7733 162.229 86.5489 164.062 84.6708 164.841C82.7926 165.62 80.6304 165.191 79.1918 163.754L1.99169 86.6541C0.552256 85.2166 0.120857 83.0533 0.898757 81.1736ZM17.6955 88.1246L77.7167 148.068V88.1246H17.6955Z" fill="#0C1452"/>
<path fill-rule="evenodd" clip-rule="evenodd" d="M155.299 81.1736C156.077 79.2938 157.911 78.068 159.945 78.068H237.145C239.922 78.068 242.173 80.3192 242.173 83.0963V160.196C242.173 162.229 240.949 164.062 239.071 164.841C237.193 165.62 235.03 165.191 233.592 163.754L156.392 86.6541C154.952 85.2166 154.521 83.0533 155.299 81.1736ZM172.095 88.1246L232.117 148.068V88.1246H172.095Z" fill="#0C1452"/>
<path fill-rule="evenodd" clip-rule="evenodd" d="M78.0988 235.379C78.8767 233.499 80.7106 232.274 82.745 232.274H159.945C162.722 232.274 164.973 234.525 164.973 237.302V314.402C164.973 316.435 163.749 318.268 161.871 319.047C159.993 319.825 157.83 319.396 156.392 317.96L79.1918 240.86C77.7523 239.422 77.3209 237.259 78.0988 235.379ZM94.8955 242.33L154.917 302.273V242.33H94.8955Z" fill="#0C1452"/>
<path fill-rule="evenodd" clip-rule="evenodd" d="M158.019 232.657C159.897 231.878 162.06 232.307 163.498 233.744L240.698 310.844C242.138 312.281 242.569 314.445 241.791 316.324C241.013 318.204 239.179 319.43 237.145 319.43H159.945C157.168 319.43 154.917 317.179 154.917 314.402V237.302C154.917 235.269 156.141 233.436 158.019 232.657ZM164.973 249.43V309.373H224.994L164.973 249.43Z" fill="#0C1452"/>
<path fill-rule="evenodd" clip-rule="evenodd" d="M158.019 78.4514C159.897 77.6727 162.06 78.1017 163.498 79.5385L240.698 156.638C242.138 158.076 242.569 160.239 241.791 162.119C241.013 163.998 239.179 165.224 237.145 165.224H159.945C157.168 165.224 154.917 162.973 154.917 160.196V83.0963C154.917 81.0631 156.141 79.2301 158.019 78.4514ZM164.973 95.2245V155.168H224.994L164.973 95.2245Z" fill="#0C1452"/>
<path fill-rule="evenodd" clip-rule="evenodd" d="M158.019 155.554C159.897 154.776 162.06 155.205 163.498 156.641L240.698 233.741C242.138 235.178 242.569 237.342 241.791 239.222C241.013 241.101 239.179 242.327 237.145 242.327H159.945C157.168 242.327 154.917 240.076 154.917 237.299V160.199C154.917 158.166 156.141 156.333 158.019 155.554ZM164.973 172.327V232.27H224.994L164.973 172.327Z" fill="#0C1452"/>
<path fill-rule="evenodd" clip-rule="evenodd" d="M155.299 158.276C156.077 156.397 157.911 155.171 159.945 155.171H237.145C239.922 155.171 242.173 157.422 242.173 160.199V237.299C242.173 239.332 240.949 241.165 239.071 241.944C237.193 242.722 235.03 242.293 233.592 240.857L156.392 163.757C154.952 162.319 154.521 160.156 155.299 158.276ZM172.095 165.227L232.117 225.171V165.227H172.095Z" fill="#0C1452"/>
<path fill-rule="evenodd" clip-rule="evenodd" d="M155.299 235.379C156.077 233.499 157.911 232.274 159.945 232.274H237.145C239.922 232.274 242.173 234.525 242.173 237.302V314.402C242.173 316.435 240.949 318.268 239.071 319.047C237.193 319.825 235.03 319.396 233.592 317.96L156.392 240.86C154.952 239.422 154.521 237.259 155.299 235.379ZM172.095 242.33L232.117 302.273V242.33H172.095Z" fill="#0C1452"/>
<path fill-rule="evenodd" clip-rule="evenodd" d="M235.219 78.4514C237.097 77.6727 239.26 78.1017 240.698 79.5385L317.898 156.638C319.338 158.076 319.769 160.239 318.991 162.119C318.213 163.998 316.379 165.224 314.345 165.224H237.145C234.368 165.224 232.117 162.973 232.117 160.196V83.0963C232.117 81.0631 233.341 79.2301 235.219 78.4514ZM242.173 95.2245V155.168H302.195L242.173 95.2245Z" fill="#0C1452"/>
<path fill-rule="evenodd" clip-rule="evenodd" d="M235.219 1.35509C237.097 0.576419 239.26 1.00542 240.698 2.44214L317.898 79.5418C319.338 80.9794 319.769 83.1427 318.991 85.0224C318.213 86.9022 316.379 88.128 314.345 88.128H237.145C234.368 88.128 232.117 85.8767 232.117 83.0997V5.99999C232.117 3.96684 233.341 2.13375 235.219 1.35509ZM242.173 18.1282V78.0714H302.195L242.173 18.1282Z" fill="#0C1452"/>
<path fill-rule="evenodd" clip-rule="evenodd" d="M232.499 81.1736C233.277 79.2938 235.111 78.068 237.145 78.068H314.345C317.122 78.068 319.373 80.3192 319.373 83.0963V160.196C319.373 162.229 318.149 164.062 316.271 164.841C314.393 165.62 312.23 165.191 310.792 163.754L233.592 86.6541C232.152 85.2166 231.721 83.0533 232.499 81.1736ZM249.295 88.1246L309.317 148.068V88.1246H249.295Z" fill="#0C1452"/>
<path d="M1084.35 197.783H1000.63C1001.68 207.204 1005.28 214.794 1011.44 220.551C1017.59 226.308 1025.26 229.187 1034.43 229.187C1042.03 229.187 1048.38 227.486 1053.49 224.084C1058.73 220.551 1062.53 215.971 1064.89 210.345H1081.99C1078.98 219.766 1073.28 227.748 1064.89 234.29C1056.64 240.832 1046.48 244.104 1034.43 244.104C1025 244.104 1016.35 241.879 1008.49 237.43C1000.76 232.851 994.6 226.635 990.014 218.784C985.56 210.933 983.333 202.232 983.333 192.68C983.333 183.128 985.56 174.427 990.014 166.576C994.6 158.725 1000.76 152.575 1008.49 148.126C1016.35 143.547 1025 141.257 1034.43 141.257C1043.73 141.257 1052.18 143.481 1059.78 147.93C1067.38 152.379 1073.34 158.594 1077.67 166.576C1082.12 174.558 1084.35 183.652 1084.35 193.858V197.783ZM1034.43 156.173C1025.78 156.173 1018.45 158.725 1012.42 163.828C1006.52 168.931 1002.79 175.735 1001.22 184.24H1067.25C1065.68 175.997 1061.94 169.258 1056.05 164.024C1050.28 158.79 1043.08 156.173 1034.43 156.173Z" fill="#0C1452"/>
<path d="M917.651 242.141V143.22H933.176V159.118H934.159C936.517 154.276 940.186 150.285 945.165 147.145C950.274 143.874 956.301 142.238 963.245 142.238H977.002V157.744H963.245C954.467 157.744 947.392 160.622 942.02 166.38C936.648 172.137 933.962 179.661 933.962 188.951V242.141H917.651Z" fill="#0C1452"/>
<path d="M838.293 244.104C826.37 244.104 817.068 240.505 810.386 233.309C803.704 225.981 800.363 215.579 800.363 202.101V143.219H816.675V199.55C816.675 208.971 818.837 216.298 823.16 221.532C827.615 226.635 833.97 229.187 842.224 229.187C847.989 229.187 853.164 227.878 857.749 225.261C862.466 222.514 866.135 218.784 868.755 214.074C871.375 209.363 872.686 203.999 872.686 197.98V143.219H888.997V242.141H873.275V226.243H872.293C869.148 231.608 864.628 235.926 858.732 239.197C852.836 242.468 846.023 244.104 838.293 244.104Z" fill="#0C1452"/>
<path d="M750.4 158.136V227.224H782.631V242.141H734.089V158.136H712.077V143.219H734.089V118.293H750.4V143.219H776.539V158.136H750.4Z" fill="#0C1452"/>
<path d="M629.239 242.141H610.766L636.511 192.091L612.141 143.219H630.811L651.25 184.24H664.614L685.053 143.219H703.33L678.961 192.091L704.706 242.141H685.839L664.221 199.157H651.054L629.239 242.141Z" fill="#0C1452"/>
<path d="M602.624 197.783H518.903C519.951 207.204 523.554 214.794 529.712 220.551C535.869 226.308 543.534 229.187 552.705 229.187C560.304 229.187 566.659 227.486 571.769 224.084C577.009 220.551 580.809 215.971 583.167 210.345H600.265C597.252 219.766 591.552 227.748 583.167 234.29C574.913 240.832 564.759 244.104 552.705 244.104C543.272 244.104 534.625 241.879 526.764 237.43C519.034 232.851 512.876 226.635 508.29 218.784C503.835 210.933 501.608 202.232 501.608 192.68C501.608 183.128 503.835 174.427 508.29 166.576C512.876 158.725 519.034 152.575 526.764 148.126C534.625 143.547 543.272 141.257 552.705 141.257C562.008 141.257 570.458 143.481 578.058 147.93C585.657 152.379 591.618 158.594 595.942 166.576C600.396 174.558 602.624 183.652 602.624 193.858V197.783ZM552.705 156.173C544.058 156.173 536.721 158.725 530.694 163.828C524.798 168.931 521.064 175.735 519.492 184.24H585.526C583.953 175.997 580.219 169.258 574.323 164.024C568.559 158.79 561.353 156.173 552.705 156.173Z" fill="#0C1452"/>
<path d="M470.008 242.141H452.321V121.629H406.53V104.75H515.603V121.629H470.008V242.141Z" fill="#0C1452"/>
</svg>
