<svg width="1084" height="320" viewBox="0 0 1084 320" fill="none" xmlns="http://www.w3.org/2000/svg">
<path fill-rule="evenodd" clip-rule="evenodd" d="M0.505202 81.1736C1.2831 79.2938 3.11701 78.068 5.15136 78.068H82.3515C85.1285 78.068 87.3798 80.3192 87.3798 83.0963V160.196C87.3798 162.229 86.1554 164.062 84.2772 164.841C82.3991 165.62 80.2369 165.191 78.7983 163.754L1.59814 86.6541C0.158702 85.2166 -0.272698 83.0533 0.505202 81.1736ZM17.3019 88.1246L77.3232 148.068V88.1246H17.3019Z" fill="white"/>
<path fill-rule="evenodd" clip-rule="evenodd" d="M154.905 81.1736C155.683 79.2938 157.517 78.068 159.551 78.068H236.752C239.529 78.068 241.78 80.3192 241.78 83.0963V160.196C241.78 162.229 240.555 164.062 238.677 164.841C236.799 165.62 234.637 165.191 233.198 163.754L155.998 86.6541C154.559 85.2166 154.127 83.0533 154.905 81.1736ZM171.702 88.1246L231.723 148.068V88.1246H171.702Z" fill="white"/>
<path fill-rule="evenodd" clip-rule="evenodd" d="M77.7053 235.379C78.4832 233.499 80.3171 232.274 82.3514 232.274H159.552C162.329 232.274 164.58 234.525 164.58 237.302V314.402C164.58 316.435 163.355 318.268 161.477 319.047C159.599 319.825 157.437 319.396 155.998 317.96L78.7982 240.86C77.3588 239.422 76.9274 237.259 77.7053 235.379ZM94.502 242.33L154.523 302.273V242.33H94.502Z" fill="white"/>
<path fill-rule="evenodd" clip-rule="evenodd" d="M157.626 232.657C159.504 231.878 161.666 232.307 163.105 233.744L240.305 310.844C241.744 312.281 242.176 314.445 241.398 316.324C240.62 318.204 238.786 319.43 236.751 319.43H159.551C156.774 319.43 154.523 317.179 154.523 314.402V237.302C154.523 235.269 155.747 233.436 157.626 232.657ZM164.58 249.43V309.373H224.601L164.58 249.43Z" fill="white"/>
<path fill-rule="evenodd" clip-rule="evenodd" d="M157.626 78.4514C159.504 77.6727 161.666 78.1017 163.105 79.5385L240.305 156.638C241.744 158.076 242.176 160.239 241.398 162.119C240.62 163.998 238.786 165.224 236.751 165.224H159.551C156.774 165.224 154.523 162.973 154.523 160.196V83.0963C154.523 81.0631 155.747 79.2301 157.626 78.4514ZM164.58 95.2245V155.168H224.601L164.58 95.2245Z" fill="white"/>
<path fill-rule="evenodd" clip-rule="evenodd" d="M157.626 155.554C159.504 154.776 161.666 155.205 163.105 156.641L240.305 233.741C241.744 235.178 242.176 237.342 241.398 239.222C240.62 241.101 238.786 242.327 236.751 242.327H159.551C156.774 242.327 154.523 240.076 154.523 237.299V160.199C154.523 158.166 155.747 156.333 157.626 155.554ZM164.58 172.327V232.27H224.601L164.58 172.327Z" fill="white"/>
<path fill-rule="evenodd" clip-rule="evenodd" d="M154.905 158.276C155.683 156.397 157.517 155.171 159.551 155.171H236.752C239.529 155.171 241.78 157.422 241.78 160.199V237.299C241.78 239.332 240.555 241.165 238.677 241.944C236.799 242.722 234.637 242.293 233.198 240.857L155.998 163.757C154.559 162.319 154.127 160.156 154.905 158.276ZM171.702 165.227L231.723 225.171V165.227H171.702Z" fill="white"/>
<path fill-rule="evenodd" clip-rule="evenodd" d="M154.905 235.379C155.683 233.499 157.517 232.274 159.551 232.274H236.752C239.529 232.274 241.78 234.525 241.78 237.302V314.402C241.78 316.435 240.555 318.268 238.677 319.047C236.799 319.825 234.637 319.396 233.198 317.96L155.998 240.86C154.559 239.422 154.127 237.259 154.905 235.379ZM171.702 242.33L231.723 302.273V242.33H171.702Z" fill="white"/>
<path fill-rule="evenodd" clip-rule="evenodd" d="M234.826 78.4514C236.704 77.6727 238.866 78.1017 240.305 79.5385L317.505 156.638C318.944 158.076 319.376 160.239 318.598 162.119C317.82 163.998 315.986 165.224 313.952 165.224H236.751C233.974 165.224 231.723 162.973 231.723 160.196V83.0963C231.723 81.0631 232.948 79.2301 234.826 78.4514ZM241.78 95.2245V155.168H301.801L241.78 95.2245Z" fill="white"/>
<path fill-rule="evenodd" clip-rule="evenodd" d="M234.826 1.35509C236.704 0.576419 238.866 1.00542 240.305 2.44214L317.505 79.5418C318.944 80.9794 319.376 83.1427 318.598 85.0224C317.82 86.9022 315.986 88.128 313.952 88.128H236.751C233.974 88.128 231.723 85.8767 231.723 83.0997V5.99999C231.723 3.96684 232.948 2.13375 234.826 1.35509ZM241.78 18.1282V78.0714H301.801L241.78 18.1282Z" fill="white"/>
<path fill-rule="evenodd" clip-rule="evenodd" d="M232.105 81.1736C232.883 79.2938 234.717 78.068 236.751 78.068H313.952C316.729 78.068 318.98 80.3192 318.98 83.0963V160.196C318.98 162.229 317.755 164.062 315.877 164.841C313.999 165.62 311.837 165.191 310.398 163.754L233.198 86.6541C231.759 85.2166 231.327 83.0533 232.105 81.1736ZM248.902 88.1246L308.923 148.068V88.1246H248.902Z" fill="white"/>
<path d="M1083.95 197.783H1000.23C1001.28 207.204 1004.88 214.794 1011.04 220.551C1017.2 226.308 1024.87 229.187 1034.04 229.187C1041.64 229.187 1047.99 227.486 1053.1 224.084C1058.34 220.551 1062.14 215.971 1064.5 210.345H1081.6C1078.58 219.766 1072.88 227.748 1064.5 234.29C1056.24 240.832 1046.09 244.104 1034.04 244.104C1024.6 244.104 1015.96 241.879 1008.09 237.43C1000.36 232.851 994.207 226.635 989.621 218.784C985.166 210.933 982.939 202.232 982.939 192.68C982.939 183.128 985.166 174.427 989.621 166.576C994.207 158.725 1000.36 152.575 1008.09 148.126C1015.96 143.547 1024.6 141.257 1034.04 141.257C1043.34 141.257 1051.79 143.481 1059.39 147.93C1066.99 152.379 1072.95 158.594 1077.27 166.576C1081.73 174.558 1083.95 183.652 1083.95 193.858V197.783ZM1034.04 156.173C1025.39 156.173 1018.05 158.725 1012.03 163.828C1006.13 168.931 1002.4 175.735 1000.82 184.24H1066.86C1065.28 175.997 1061.55 169.258 1055.65 164.024C1049.89 158.79 1042.68 156.173 1034.04 156.173Z" fill="white"/>
<path d="M917.257 242.141V143.219H932.783V159.117H933.765C936.124 154.276 939.792 150.285 944.771 147.145C949.881 143.874 955.908 142.238 962.852 142.238H976.609V157.744H962.852C954.073 157.744 946.998 160.622 941.627 166.38C936.255 172.137 933.569 179.661 933.569 188.951V242.141H917.257Z" fill="white"/>
<path d="M837.9 244.104C825.977 244.104 816.675 240.505 809.993 233.309C803.311 225.981 799.97 215.579 799.97 202.101V143.219H816.281V199.55C816.281 208.971 818.443 216.298 822.767 221.532C827.222 226.635 833.576 229.187 841.83 229.187C847.595 229.187 852.77 227.878 857.356 225.261C862.073 222.514 865.741 218.784 868.361 214.074C870.982 209.363 872.292 203.999 872.292 197.98V143.219H888.604V242.141H872.882V226.243H871.899C868.754 231.608 864.234 235.926 858.339 239.197C852.443 242.468 845.63 244.104 837.9 244.104Z" fill="white"/>
<path d="M750.007 158.136V227.224H782.237V242.141H733.695V158.136H711.684V143.219H733.695V118.293H750.007V143.219H776.145V158.136H750.007Z" fill="white"/>
<path d="M628.846 242.141H610.372L636.117 192.091L611.748 143.219H630.418L650.857 184.24H664.221L684.66 143.219H702.937L678.567 192.091L704.312 242.141H685.446L663.828 199.157H650.66L628.846 242.141Z" fill="white"/>
<path d="M602.23 197.783H518.509C519.557 207.204 523.16 214.794 529.318 220.551C535.476 226.308 543.141 229.187 552.312 229.187C559.911 229.187 566.265 227.486 571.375 224.084C576.616 220.551 580.415 215.971 582.774 210.345H599.872C596.858 219.766 591.159 227.748 582.774 234.29C574.52 240.832 564.366 244.104 552.312 244.104C542.878 244.104 534.231 241.879 526.37 237.43C518.64 232.851 512.482 226.635 507.896 218.784C503.442 210.933 501.214 202.232 501.214 192.68C501.214 183.128 503.442 174.427 507.896 166.576C512.482 158.725 518.64 152.575 526.37 148.126C534.231 143.547 542.878 141.257 552.312 141.257C561.614 141.257 570.065 143.481 577.664 147.93C585.263 152.379 591.224 158.594 595.548 166.576C600.003 174.558 602.23 183.652 602.23 193.858V197.783ZM552.312 156.173C543.665 156.173 536.328 158.725 530.301 163.828C524.405 168.931 520.671 175.735 519.099 184.24H585.132C583.56 175.997 579.826 169.258 573.93 164.024C568.165 158.79 560.959 156.173 552.312 156.173Z" fill="white"/>
<path d="M469.615 242.141H451.927V121.629H406.136V104.75H515.209V121.629H469.615V242.141Z" fill="white"/>
</svg>
