<svg width="48" height="48" viewBox="0 0 48 48" fill="none" xmlns="http://www.w3.org/2000/svg">
<path d="M32.9698 20.9139C32.9223 20.6807 32.82 20.4622 32.6713 20.2764C32.5226 20.0905 32.3319 19.9427 32.1148 19.8452L22.7398 15.6396L25.3123 4.84711C25.3884 4.52482 25.3557 4.18641 25.2193 3.88465C25.0829 3.58289 24.8505 3.33475 24.5583 3.17891C24.2661 3.02307 23.9306 2.96831 23.604 3.02316C23.2774 3.078 22.9782 3.23937 22.7529 3.48211L4.89913 22.7664C4.73749 22.9411 4.61972 23.1517 4.55556 23.3809C4.49139 23.61 4.48267 23.8512 4.53012 24.0844C4.57756 24.3176 4.67981 24.5361 4.82842 24.722C4.97702 24.9079 5.16772 25.0557 5.38475 25.1533L14.7598 29.3608L12.1873 40.1533C12.1112 40.4756 12.1439 40.814 12.2803 41.1158C12.4167 41.4175 12.6491 41.6657 12.9413 41.8215C13.2335 41.9774 13.569 42.0321 13.8956 41.9773C14.2222 41.9224 14.5214 41.7611 14.7467 41.5183L32.5967 22.2339C32.7594 22.0594 32.8781 21.8487 32.943 21.6191C33.0079 21.3895 33.0171 21.1478 32.9698 20.9139ZM16.4285 35.2896L17.9585 28.8471C18.0394 28.5076 17.9994 28.1506 17.8454 27.8374C17.6914 27.5243 17.433 27.2746 17.1148 27.1314L8.51788 23.2727L21.071 9.71086L19.541 16.1533C19.4602 16.4928 19.5002 16.8498 19.6542 17.163C19.8082 17.4761 20.0665 17.7258 20.3848 17.8689L28.9798 21.7277L16.4285 35.2896ZM44.8404 39.8289L38.0904 26.3289C37.9658 26.0798 37.7743 25.8703 37.5374 25.7239C37.3004 25.5775 37.0274 25.4999 36.7489 25.4999C36.4703 25.4999 36.1973 25.5775 35.9603 25.7239C35.7234 25.8703 35.5319 26.0798 35.4073 26.3289L28.6573 39.8289C28.4793 40.1847 28.4499 40.5967 28.5756 40.9742C28.7013 41.3517 28.9718 41.6637 29.3276 41.8418C29.6834 42.0198 30.0954 42.0492 30.4728 41.9235C30.8503 41.7978 31.1624 41.5272 31.3404 41.1714L33.176 37.5002H40.3217L42.1573 41.1714C42.282 41.4207 42.4737 41.6302 42.7108 41.7766C42.9479 41.923 43.2211 42.0004 43.4998 42.0002C43.7555 42.0001 44.0068 41.9346 44.2301 41.81C44.4533 41.6854 44.641 41.5058 44.7753 41.2882C44.9096 41.0707 44.9861 40.8225 44.9975 40.5671C45.0089 40.3117 44.9548 40.0576 44.8404 39.8289ZM34.676 34.5002L36.7498 30.3546L38.8217 34.5002H34.676Z" fill="#444AE1"/>
</svg>
