<svg width="49" height="49" viewBox="0 0 49 49" fill="none" xmlns="http://www.w3.org/2000/svg">
<path d="M29.025 26.4492C28.8857 26.3097 28.7202 26.1991 28.5381 26.1236C28.356 26.0481 28.1608 26.0093 27.9637 26.0093C27.7666 26.0093 27.5714 26.0481 27.3893 26.1236C27.2072 26.1991 27.0418 26.3097 26.9025 26.4492L23.4637 29.8898L19.5843 26.0104L23.025 22.5717C23.3064 22.2902 23.4646 21.9085 23.4646 21.5104C23.4646 21.1124 23.3064 20.7307 23.025 20.4492C22.7435 20.1677 22.3618 20.0096 21.9637 20.0096C21.5657 20.0096 21.1839 20.1677 20.9025 20.4492L17.4637 23.8898L14.025 20.4492C13.7435 20.1677 13.3618 20.0096 12.9637 20.0096C12.5657 20.0096 12.1839 20.1677 11.9025 20.4492C11.621 20.7307 11.4629 21.1124 11.4629 21.5104C11.4629 21.9085 11.621 22.2902 11.9025 22.5717L13.0931 23.7604L8.7206 28.1311C8.1633 28.6882 7.72122 29.3497 7.41961 30.0778C7.118 30.8058 6.96276 31.5862 6.96276 32.3742C6.96276 33.1622 7.118 33.9426 7.41961 34.6706C7.72122 35.3987 8.1633 36.0602 8.7206 36.6173L9.72935 37.6242L4.40247 42.9492C4.26311 43.0886 4.15256 43.254 4.07713 43.4361C4.00171 43.6182 3.96289 43.8134 3.96289 44.0104C3.96289 44.2075 4.00171 44.4027 4.07713 44.5848C4.15256 44.7669 4.26311 44.9323 4.40247 45.0717C4.68394 45.3532 5.06568 45.5113 5.46372 45.5113C5.66082 45.5113 5.85598 45.4725 6.03807 45.397C6.22016 45.3216 6.38561 45.2111 6.52497 45.0717L11.85 39.7448L12.8568 40.7536C13.414 41.3109 14.0755 41.7529 14.8036 42.0546C15.5316 42.3562 16.3119 42.5114 17.1 42.5114C17.888 42.5114 18.6683 42.3562 19.3964 42.0546C20.1244 41.7529 20.7859 41.3109 21.3431 40.7536L25.7137 36.3811L26.9025 37.5717C27.0418 37.7111 27.2073 37.8216 27.3894 37.897C27.5715 37.9725 27.7666 38.0113 27.9637 38.0113C28.1608 38.0113 28.356 37.9725 28.5381 37.897C28.7202 37.8216 28.8856 37.7111 29.025 37.5717C29.1643 37.4323 29.2749 37.2669 29.3503 37.0848C29.4257 36.9027 29.4646 36.7075 29.4646 36.5104C29.4646 36.3134 29.4257 36.1182 29.3503 35.9361C29.2749 35.754 29.1643 35.5886 29.025 35.4492L25.5843 32.0104L29.025 28.5717C29.1644 28.4324 29.2751 28.267 29.3506 28.0849C29.4261 27.9028 29.4649 27.7076 29.4649 27.5104C29.4649 27.3133 29.4261 27.1181 29.3506 26.936C29.2751 26.7539 29.1644 26.5885 29.025 26.4492ZM19.2206 38.6367C18.658 39.1989 17.8953 39.5147 17.1 39.5147C16.3047 39.5147 15.5419 39.1989 14.9793 38.6367L10.8431 34.4948C10.2809 33.9323 9.96512 33.1695 9.96512 32.3742C9.96512 31.5789 10.2809 30.8161 10.8431 30.2536L15.2137 25.8811L23.5931 34.2604L19.2206 38.6367ZM45.525 3.94921C45.3857 3.80974 45.2202 3.69911 45.0381 3.62362C44.856 3.54813 44.6608 3.50928 44.4637 3.50928C44.2666 3.50928 44.0714 3.54813 43.8893 3.62362C43.7072 3.69911 43.5418 3.80974 43.4025 3.94921L38.0775 9.27608L37.0706 8.26733C35.9441 7.14411 34.4183 6.51337 32.8275 6.51337C31.2367 6.51337 29.7108 7.14411 28.5844 8.26733L24.2137 12.6398L23.025 11.4492C22.7435 11.1677 22.3618 11.0096 21.9637 11.0096C21.5657 11.0096 21.1839 11.1677 20.9025 11.4492C20.621 11.7307 20.4629 12.1124 20.4629 12.5104C20.4629 12.9085 20.621 13.2902 20.9025 13.5717L35.9025 28.5717C36.0418 28.7111 36.2073 28.8216 36.3894 28.897C36.5715 28.9725 36.7666 29.0113 36.9637 29.0113C37.1608 29.0113 37.356 28.9725 37.5381 28.897C37.7202 28.8216 37.8856 28.7111 38.025 28.5717C38.1643 28.4323 38.2749 28.2669 38.3503 28.0848C38.4257 27.9027 38.4646 27.7075 38.4646 27.5104C38.4646 27.3134 38.4257 27.1182 38.3503 26.9361C38.2749 26.754 38.1643 26.5886 38.025 26.4492L36.8344 25.2604L41.2069 20.8898C41.7641 20.3327 42.2062 19.6712 42.5078 18.9431C42.8095 18.2151 42.9647 17.4347 42.9647 16.6467C42.9647 15.8587 42.8095 15.0783 42.5078 14.3503C42.2062 13.6222 41.7641 12.9607 41.2069 12.4036L40.1981 11.3967L45.525 6.07171C45.6644 5.9324 45.7751 5.76697 45.8506 5.58487C45.9261 5.40277 45.9649 5.20758 45.9649 5.01046C45.9649 4.81334 45.9261 4.61815 45.8506 4.43605C45.7751 4.25395 45.6644 4.08852 45.525 3.94921ZM39.0844 18.7617L34.7137 23.1398L26.3343 14.7604L30.7069 10.3898C31.2694 9.82765 32.0322 9.51185 32.8275 9.51185C33.6228 9.51185 34.3855 9.82765 34.9481 10.3898L39.0844 14.5148C39.3644 14.7936 39.5866 15.1249 39.7383 15.4898C39.8899 15.8547 39.968 16.2459 39.968 16.6411C39.968 17.0362 39.8899 17.4275 39.7383 17.7923C39.5866 18.1572 39.3644 18.4886 39.0844 18.7673V18.7617Z" fill="#444AE1"/>
</svg>
