<svg width="12674" height="2524" viewBox="0 0 12674 2524" fill="none" xmlns="http://www.w3.org/2000/svg">
<rect x="3" y="3" width="2518" height="2518" rx="7" fill="#2388DB"/>
<rect x="3" y="3" width="2518" height="2518" rx="7" stroke="#A6A5A5" stroke-width="6"/>
<path d="M727.081 280.922V953.149H875.07V280.922H727.081ZM1649.63 280.922V953.149H1796.92V280.922H1649.63ZM727.081 1069.29V1238.92C727.081 1500.23 915.664 1717.93 1164.03 1764.02C1134.71 1947.5 977.119 2087.11 784.883 2087.11H759.511V2239.15C1040.97 2230.77 1273.16 2033.05 1332.48 1768.25C1594.31 1733.67 1796.92 1509.76 1796.92 1238.92V1069.29H727.081Z" fill="white"/>
<rect x="3455" y="3" width="2518" height="2518" rx="7" fill="#F8F8F8"/>
<rect x="3455" y="3" width="2518" height="2518" rx="7" stroke="#A6A5A5" stroke-width="6"/>
<g clip-path="url(#clip0_2356_709)">
<path d="M5334.74 974.618C5278.63 974.618 5226.38 990.83 5182.22 1018.91V974.618H5049.73V1744.94H5182.22V1501.87C5226.26 1529.95 5278.63 1546.16 5334.74 1546.16C5492.18 1546.16 5619.76 1418.23 5619.76 1260.33C5619.76 1102.55 5492.18 974.618 5334.74 974.618ZM5334.74 1412.82C5250.98 1412.82 5182.69 1344.45 5182.69 1260.33C5182.69 1176.22 5250.87 1107.84 5334.74 1107.84C5418.5 1107.84 5486.8 1176.22 5486.8 1260.33C5486.8 1344.45 5418.5 1412.82 5334.74 1412.82ZM4938.67 974.618H4865.57V1018.67C4821.53 990.83 4769.51 974.618 4713.52 974.618C4645.22 974.618 4582.55 998.703 4533.46 1038.88C4519.53 1050.29 4506.7 1062.99 4495.16 1076.83C4465.64 1112.07 4444.43 1154.6 4434.71 1201.36C4430.96 1218.98 4428.97 1237.31 4428.62 1255.99V1264.68C4427.91 1288.29 4421.94 1310.5 4411.63 1330.23C4405.77 1341.63 4398.51 1352.09 4390.08 1361.6C4362.2 1392.97 4321.66 1412.71 4276.68 1412.71C4217.99 1412.71 4167.03 1379.22 4141.73 1330.23H4308.78C4345.79 1330.23 4375.67 1300.16 4375.67 1263.15C4375.67 1228.97 4348.02 1201.24 4313.93 1201.24H4136.69C4159.77 1146.49 4213.89 1107.84 4276.8 1107.84C4321.78 1107.84 4362.31 1127.58 4390.19 1158.95C4404.13 1114.19 4427.09 1073.54 4456.85 1038.76C4407.77 998.584 4345.09 974.502 4276.8 974.502C4119.47 974.502 3991.66 1102.79 3991.78 1260.57C3991.9 1418.34 4119.47 1546.16 4276.8 1546.16C4345.09 1546.16 4407.77 1522.08 4456.85 1481.9C4470.78 1470.49 4483.61 1457.79 4495.16 1443.96C4535.81 1395.32 4560.64 1332.94 4561.69 1264.8V1260.45V1256.1C4562.7 1220.24 4576.35 1185.9 4600.23 1159.18C4629.29 1126.52 4672.28 1106.43 4719.61 1108.2C4797.86 1111.25 4861.71 1174.81 4865.45 1253.28C4869.55 1340.69 4799.85 1412.94 4713.63 1412.94C4668.65 1412.94 4628.12 1393.2 4600.23 1361.84C4586.29 1406.6 4563.33 1447.36 4533.58 1482.02C4582.66 1522.2 4645.34 1546.28 4713.63 1546.28C4769.51 1546.28 4821.64 1530.19 4865.69 1502.23V1557.21H4998.76V974.618H4938.67ZM3939.18 786.884H3806.1V1557.21H3940V786.884H3939.18Z" fill="#1D1D1D"/>
</g>
<rect x="6907" y="3" width="2414.51" height="2508.59" rx="7" fill="#00A1E0"/>
<rect x="6907" y="3" width="2414.51" height="2508.59" rx="7" stroke="#A6A5A5" stroke-width="6"/>
<g clip-path="url(#clip1_2356_709)">
<path d="M7969.95 785.784C8025.12 728.287 8101.92 692.629 8186.87 692.629C8299.78 692.629 8398.3 755.61 8450.76 849.106C8496.36 828.73 8546.82 817.396 8599.92 817.396C8803.58 817.396 8968.69 983.988 8968.69 1189.48C8968.69 1394.99 8803.58 1561.59 8599.92 1561.59C8575.06 1561.59 8550.77 1559.1 8527.28 1554.35C8481.08 1636.78 8393.04 1692.47 8291.99 1692.47C8249.68 1692.47 8209.67 1682.7 8174.05 1665.32C8127.21 1775.51 8018.1 1852.77 7890.92 1852.77C7758.49 1852.77 7645.62 1768.95 7602.29 1651.4C7583.36 1655.42 7563.74 1657.52 7543.62 1657.52C7385.94 1657.52 7258.1 1528.34 7258.1 1368.96C7258.1 1262.16 7315.54 1168.91 7400.87 1119.02C7383.3 1078.58 7373.53 1033.95 7373.53 987.034C7373.53 803.747 7522.3 655.167 7705.78 655.167C7813.51 655.167 7909.25 706.4 7969.95 785.784Z" fill="white"/>
<path d="M7506.72 1277.07C7505.65 1279.88 7507.11 1280.46 7507.45 1280.95C7510.67 1283.29 7513.94 1284.97 7517.23 1286.85C7534.67 1296.11 7551.14 1298.82 7568.37 1298.82C7603.46 1298.82 7625.25 1280.15 7625.25 1250.09V1249.51C7625.25 1221.72 7600.66 1211.63 7577.58 1204.34L7574.59 1203.37C7557.19 1197.71 7542.18 1192.84 7542.18 1181.38V1180.78C7542.18 1170.98 7550.95 1163.76 7564.55 1163.76C7579.65 1163.76 7597.59 1168.78 7609.14 1175.17C7609.14 1175.17 7612.53 1177.36 7613.77 1174.07C7614.45 1172.32 7620.3 1156.57 7620.91 1154.87C7621.57 1153.01 7620.4 1151.65 7619.2 1150.92C7606.02 1142.9 7587.79 1137.42 7568.93 1137.42L7565.42 1137.44C7533.31 1137.44 7510.89 1156.84 7510.89 1184.65V1185.24C7510.89 1214.56 7535.62 1224.06 7558.8 1230.69L7562.52 1231.84C7579.41 1237.03 7593.96 1241.49 7593.96 1253.38V1253.97C7593.96 1264.84 7584.5 1272.93 7569.25 1272.93C7563.33 1272.93 7544.44 1272.81 7524.05 1259.92C7521.59 1258.48 7520.15 1257.43 7518.25 1256.28C7517.25 1255.65 7514.74 1254.55 7513.64 1257.87L7506.72 1277.07Z" fill="#00A1E0"/>
<path d="M8020.41 1277.07C8019.34 1279.88 8020.8 1280.46 8021.14 1280.95C8024.36 1283.29 8027.62 1284.97 8030.91 1286.85C8048.36 1296.11 8064.83 1298.82 8082.06 1298.82C8117.15 1298.82 8138.93 1280.15 8138.93 1250.09V1249.51C8138.93 1221.72 8114.35 1211.63 8091.27 1204.34L8088.28 1203.37C8070.88 1197.71 8055.87 1192.84 8055.87 1181.38V1180.78C8055.87 1170.98 8064.64 1163.76 8078.24 1163.76C8093.34 1163.76 8111.28 1168.78 8122.83 1175.17C8122.83 1175.17 8126.21 1177.36 8127.46 1174.07C8128.14 1172.32 8133.99 1156.57 8134.6 1154.87C8135.26 1153.01 8134.09 1151.65 8132.89 1150.92C8119.71 1142.9 8101.48 1137.42 8082.62 1137.42L8079.11 1137.44C8047 1137.44 8024.58 1156.84 8024.58 1184.65V1185.24C8024.58 1214.56 8049.31 1224.06 8072.48 1230.69L8076.21 1231.84C8093.1 1237.03 8107.67 1241.49 8107.67 1253.38V1253.97C8107.67 1264.84 8098.19 1272.93 8082.94 1272.93C8077.02 1272.93 8058.13 1272.81 8037.74 1259.92C8035.28 1258.48 8033.81 1257.48 8031.96 1256.28C8031.33 1255.87 8028.36 1254.72 8027.33 1257.87L8020.41 1277.07Z" fill="#00A1E0"/>
<path d="M8371.09 1218.21C8371.09 1235.2 8367.92 1248.58 8361.69 1258.03C8355.52 1267.39 8346.19 1271.95 8333.18 1271.95C8320.14 1271.95 8310.85 1267.42 8304.79 1258.03C8298.65 1248.6 8295.53 1235.2 8295.53 1218.21C8295.53 1201.24 8298.65 1187.89 8304.79 1178.53C8310.85 1169.27 8320.14 1164.76 8333.18 1164.76C8346.19 1164.76 8355.52 1169.27 8361.71 1178.53C8367.92 1187.89 8371.09 1201.24 8371.09 1218.21ZM8400.38 1186.72C8397.51 1176.99 8393.02 1168.41 8387.05 1161.27C8381.08 1154.11 8373.53 1148.35 8364.56 1144.16C8355.62 1139.99 8345.04 1137.87 8333.18 1137.87C8321.28 1137.87 8310.71 1139.99 8301.77 1144.16C8292.8 1148.35 8285.24 1154.11 8279.25 1161.27C8273.3 1168.44 8268.82 1177.02 8265.92 1186.72C8263.07 1196.39 8261.63 1206.97 8261.63 1218.21C8261.63 1229.44 8263.07 1240.05 8265.92 1249.7C8268.82 1259.4 8273.28 1267.98 8279.27 1275.14C8285.24 1282.31 8292.82 1288.04 8301.77 1292.11C8310.73 1296.18 8321.28 1298.25 8333.18 1298.25C8345.04 1298.25 8355.59 1296.18 8364.56 1292.11C8373.5 1288.04 8381.08 1282.31 8387.05 1275.14C8393.02 1268 8397.51 1259.42 8400.38 1249.7C8403.26 1240.02 8404.69 1229.42 8404.69 1218.21C8404.69 1207 8403.26 1196.39 8400.38 1186.72Z" fill="#00A1E0"/>
<path d="M8640.9 1267.42C8639.93 1264.56 8637.18 1265.64 8637.18 1265.64C8632.91 1267.27 8628.38 1268.78 8623.55 1269.54C8618.66 1270.29 8613.27 1270.68 8607.5 1270.68C8593.31 1270.68 8582.06 1266.46 8573.99 1258.13C8565.9 1249.79 8561.37 1236.31 8561.42 1218.08C8561.47 1201.49 8565.46 1189.01 8572.65 1179.5C8579.79 1170.04 8590.66 1165.19 8605.16 1165.19C8617.24 1165.19 8626.45 1166.58 8636.1 1169.63C8636.1 1169.63 8638.42 1170.63 8639.51 1167.61C8642.07 1160.49 8643.97 1155.4 8646.7 1147.57C8647.48 1145.35 8645.58 1144.4 8644.9 1144.14C8641.1 1142.65 8632.13 1140.24 8625.36 1139.21C8619.02 1138.24 8611.61 1137.72 8603.38 1137.72C8591.07 1137.72 8580.11 1139.82 8570.73 1144.01C8561.37 1148.18 8553.42 1153.93 8547.14 1161.1C8540.85 1168.26 8536.08 1176.84 8532.88 1186.54C8529.72 1196.22 8528.11 1206.85 8528.11 1218.08C8528.11 1242.38 8534.66 1262.03 8547.6 1276.41C8560.56 1290.84 8580.03 1298.17 8605.42 1298.17C8620.43 1298.17 8635.84 1295.13 8646.9 1290.76C8646.9 1290.76 8649.02 1289.74 8648.09 1287.28L8640.9 1267.42Z" fill="#00A1E0"/>
<path d="M8692.15 1201.93C8693.54 1192.5 8696.15 1184.65 8700.17 1178.53C8706.23 1169.25 8715.49 1164.15 8728.51 1164.15C8741.52 1164.15 8750.12 1169.27 8756.29 1178.53C8760.38 1184.65 8762.16 1192.84 8762.86 1201.93H8692.15ZM8790.77 1181.19C8788.28 1171.81 8782.11 1162.33 8778.07 1157.99C8771.69 1151.11 8765.45 1146.31 8759.26 1143.63C8751.17 1140.17 8741.47 1137.88 8730.85 1137.88C8718.47 1137.88 8707.23 1139.95 8698.12 1144.24C8688.98 1148.53 8681.31 1154.38 8675.29 1161.67C8669.27 1168.93 8664.74 1177.58 8661.86 1187.41C8658.96 1197.18 8657.5 1207.83 8657.5 1219.07C8657.5 1230.5 8659.01 1241.15 8662.01 1250.73C8665.03 1260.38 8669.85 1268.89 8676.38 1275.93C8682.89 1283.02 8691.27 1288.58 8701.31 1292.45C8711.28 1296.31 8723.39 1298.3 8737.3 1298.28C8765.93 1298.18 8781.02 1291.8 8787.23 1288.36C8788.33 1287.75 8789.38 1286.68 8788.06 1283.61L8781.58 1265.45C8780.6 1262.74 8777.85 1263.74 8777.85 1263.74C8770.76 1266.38 8760.67 1271.1 8737.16 1271.05C8721.78 1271.03 8710.38 1266.5 8703.24 1259.4C8695.9 1252.14 8692.32 1241.47 8691.69 1226.4L8790.84 1226.5C8790.84 1226.5 8793.45 1226.45 8793.71 1223.92C8793.81 1222.84 8797.12 1203.54 8790.77 1181.19Z" fill="#00A1E0"/>
<path d="M7898.1 1201.93C7899.51 1192.5 7902.09 1184.65 7906.11 1178.53C7912.18 1169.25 7921.44 1164.15 7934.45 1164.15C7947.46 1164.15 7956.07 1169.27 7962.26 1178.53C7966.32 1184.65 7968.1 1192.84 7968.81 1201.93H7898.1ZM7996.69 1181.19C7994.2 1171.81 7988.06 1162.33 7984.02 1157.99C7977.63 1151.11 7971.39 1146.31 7965.2 1143.63C7957.11 1140.17 7947.42 1137.88 7936.79 1137.88C7924.44 1137.88 7913.18 1139.95 7904.07 1144.24C7894.93 1148.53 7887.25 1154.38 7881.23 1161.67C7875.21 1168.93 7870.68 1177.58 7867.81 1187.41C7864.93 1197.18 7863.45 1207.83 7863.45 1219.07C7863.45 1230.5 7864.96 1241.15 7867.95 1250.73C7870.98 1260.38 7875.8 1268.89 7882.33 1275.93C7888.84 1283.02 7897.22 1288.58 7907.26 1292.45C7917.22 1296.31 7929.33 1298.3 7943.25 1298.28C7971.88 1298.18 7986.96 1291.8 7993.18 1288.36C7994.27 1287.75 7995.32 1286.68 7994.01 1283.61L7987.55 1265.45C7986.55 1262.74 7983.8 1263.74 7983.8 1263.74C7976.7 1266.38 7966.64 1271.1 7943.08 1271.05C7927.73 1271.03 7916.32 1266.5 7909.18 1259.4C7901.85 1252.14 7898.27 1241.47 7897.63 1226.4L7996.78 1226.5C7996.78 1226.5 7999.39 1226.45 7999.66 1223.92C7999.76 1222.84 8003.07 1203.54 7996.69 1181.19Z" fill="#00A1E0"/>
<path d="M7683.78 1266.87C7679.91 1263.78 7679.37 1263 7678.06 1261C7676.11 1257.95 7675.11 1253.61 7675.11 1248.1C7675.11 1239.38 7677.98 1233.11 7683.95 1228.9C7683.88 1228.92 7692.48 1221.46 7712.71 1221.73C7726.91 1221.93 7739.61 1224.02 7739.61 1224.02V1269.11H7739.63C7739.63 1269.11 7727.03 1271.82 7712.85 1272.67C7692.68 1273.89 7683.71 1266.85 7683.78 1266.87ZM7723.23 1197.19C7719.21 1196.9 7714 1196.72 7707.76 1196.72C7699.26 1196.72 7691.04 1197.8 7683.34 1199.87C7675.6 1201.94 7668.63 1205.18 7662.63 1209.47C7656.61 1213.79 7651.76 1219.29 7648.26 1225.83C7644.75 1232.36 7642.97 1240.06 7642.97 1248.69C7642.97 1257.46 7644.48 1265.09 7647.5 1271.33C7650.52 1277.6 7654.88 1282.81 7660.44 1286.83C7665.95 1290.85 7672.74 1293.8 7680.64 1295.58C7688.41 1297.36 7697.23 1298.26 7706.88 1298.26C7717.04 1298.26 7727.18 1297.44 7737 1295.75C7746.72 1294.1 7758.66 1291.68 7761.98 1290.93C7765.27 1290.15 7768.92 1289.15 7768.92 1289.15C7771.38 1288.54 7771.19 1285.91 7771.19 1285.91L7771.14 1195.21C7771.14 1175.33 7765.83 1160.58 7755.37 1151.44C7744.97 1142.32 7729.64 1137.72 7709.83 1137.72C7702.4 1137.72 7690.44 1138.74 7683.27 1140.18C7683.27 1140.18 7661.61 1144.37 7652.69 1151.34C7652.69 1151.34 7650.74 1152.56 7651.81 1155.29L7658.83 1174.16C7659.71 1176.59 7662.07 1175.76 7662.07 1175.76C7662.07 1175.76 7662.83 1175.47 7663.7 1174.96C7682.78 1164.58 7706.91 1164.89 7706.91 1164.89C7717.63 1164.89 7725.87 1167.04 7731.42 1171.3C7736.83 1175.45 7739.58 1181.71 7739.58 1194.92V1199.11C7731.06 1197.89 7723.23 1197.19 7723.23 1197.19Z" fill="#00A1E0"/>
<path d="M8522.93 1146.09C8523.68 1143.84 8522.1 1142.77 8521.44 1142.53C8519.76 1141.87 8511.33 1140.09 8504.82 1139.68C8492.37 1138.92 8485.45 1141.02 8479.26 1143.8C8473.12 1146.57 8466.3 1151.06 8462.5 1156.15V1144.09C8462.5 1142.41 8461.3 1141.07 8459.64 1141.07H8434.23C8432.57 1141.07 8431.38 1142.41 8431.38 1144.09V1292.01C8431.38 1293.67 8432.74 1295.03 8434.4 1295.03H8460.45C8462.11 1295.03 8463.45 1293.67 8463.45 1292.01V1218.11C8463.45 1208.19 8464.54 1198.29 8466.74 1192.08C8468.88 1185.94 8471.8 1181.01 8475.41 1177.48C8479.04 1173.97 8483.16 1171.51 8487.67 1170.12C8492.27 1168.71 8497.37 1168.24 8500.97 1168.24C8506.16 1168.24 8511.86 1169.58 8511.86 1169.58C8513.76 1169.8 8514.84 1168.63 8515.47 1166.9C8517.18 1162.37 8522 1148.79 8522.93 1146.09Z" fill="#00A1E0"/>
<path d="M8278.42 1077.53C8275.25 1076.55 8272.38 1075.9 8268.62 1075.19C8264.82 1074.51 8260.29 1074.17 8255.15 1074.17C8237.21 1074.17 8223.08 1079.23 8213.16 1089.23C8203.3 1099.17 8196.59 1114.31 8193.23 1134.22L8192.01 1140.92H8169.5C8169.5 1140.92 8166.77 1140.83 8166.18 1143.8L8162.5 1164.44C8162.24 1166.39 8163.09 1167.64 8165.72 1167.64H8187.63L8165.4 1291.75C8163.67 1301.74 8161.68 1309.95 8159.46 1316.19C8157.29 1322.33 8155.17 1326.94 8152.54 1330.3C8150 1333.52 8147.62 1335.91 8143.47 1337.3C8140.06 1338.44 8136.11 1338.98 8131.8 1338.98C8129.41 1338.98 8126.22 1338.59 8123.86 1338.1C8121.52 1337.64 8120.28 1337.13 8118.5 1336.37C8118.5 1336.37 8115.94 1335.4 8114.92 1337.96C8114.11 1340.08 8108.26 1356.14 8107.56 1358.11C8106.87 1360.09 8107.85 1361.62 8109.09 1362.09C8112.02 1363.11 8114.18 1363.79 8118.16 1364.74C8123.66 1366.04 8128.32 1366.11 8132.68 1366.11C8141.79 1366.11 8150.13 1364.82 8157.02 1362.33C8163.94 1359.82 8169.99 1355.46 8175.35 1349.56C8181.12 1343.17 8184.75 1336.49 8188.21 1327.35C8191.65 1318.34 8194.6 1307.13 8196.94 1294.06L8219.28 1167.64H8251.93C8251.93 1167.64 8254.69 1167.73 8255.25 1164.74L8258.95 1144.12C8259.19 1142.14 8258.37 1140.92 8255.71 1140.92H8224.01C8224.18 1140.22 8225.62 1129.05 8229.25 1118.55C8230.81 1114.09 8233.73 1110.46 8236.19 1107.97C8238.63 1105.53 8241.43 1103.8 8244.5 1102.8C8247.64 1101.78 8251.23 1101.29 8255.15 1101.29C8258.12 1101.29 8261.07 1101.63 8263.29 1102.1C8266.36 1102.75 8267.55 1103.1 8268.36 1103.34C8271.6 1104.31 8272.04 1103.36 8272.67 1101.8L8280.25 1080.99C8281.03 1078.75 8279.1 1077.8 8278.42 1077.53Z" fill="#00A1E0"/>
<path d="M7835.48 1292.02C7835.48 1293.67 7834.29 1295.01 7832.63 1295.01H7806.34C7804.68 1295.01 7803.51 1293.67 7803.51 1292.02V1080.36C7803.51 1078.7 7804.68 1077.36 7806.34 1077.36H7832.63C7834.29 1077.36 7835.48 1078.7 7835.48 1080.36V1292.02Z" fill="#00A1E0"/>
</g>
<rect x="10255.5" y="3" width="2414.51" height="2508.59" rx="7" fill="#F8F8F8"/>
<rect x="10255.5" y="3" width="2414.51" height="2508.59" rx="7" stroke="#A6A5A5" stroke-width="6"/>
<g clip-path="url(#clip2_2356_709)">
<path opacity="0.986" fill-rule="evenodd" clip-rule="evenodd" d="M11280.8 427.639C11293.5 427.639 11306.2 427.639 11319 427.639C11409.7 440.362 11496.3 467.497 11578.9 509.046C11716.8 581.813 11774.6 695.551 11752.1 850.262C11667.6 787.914 11577.5 733.645 11481.8 687.448C11536.6 863.031 11526.2 1035.08 11450.6 1203.6C11438.2 1231.7 11427.8 1260.57 11419.4 1290.21C11395.2 1270.61 11372.1 1249.82 11350.1 1227.85C11392.7 987.081 11380.6 749.21 11313.8 514.242C11303.8 484.87 11292.8 456.002 11280.8 427.639Z" fill="#A8DEE8"/>
<path opacity="0.994" fill-rule="evenodd" clip-rule="evenodd" d="M11752.1 850.261C11817.1 896.178 11870.8 952.757 11913.2 1020C11972.6 1131.85 11953.6 1228.27 11856.1 1309.26C11790.4 1361.46 11717.7 1401.3 11637.8 1428.77C11612.9 1437.19 11588.6 1446.43 11565 1456.48C11544.2 1421.89 11525.2 1386.09 11507.8 1349.09C11488.3 1300.39 11469.3 1251.89 11450.6 1203.6C11526.2 1035.08 11536.6 863.03 11481.8 687.447C11577.5 733.644 11667.6 787.914 11752.1 850.261Z" fill="#D9F0F2"/>
<path opacity="0.994" fill-rule="evenodd" clip-rule="evenodd" d="M11350.1 1227.85C11372.1 1249.82 11395.2 1270.61 11419.4 1290.21C11397.6 1348.68 11378 1407.57 11360.5 1466.88C11183.7 1464.58 11020.8 1510.19 10871.9 1603.71C10828.9 1635.2 10790.2 1671.57 10755.9 1712.83C10747.3 1605.1 10750.2 1497.72 10764.5 1390.66C10773.2 1309.77 10796.9 1233.56 10835.6 1162.03C10882.2 1084.15 10951 1050.08 11041.7 1059.84C11106.5 1072.57 11166.6 1096.82 11221.9 1132.59C11267.2 1161.09 11309.9 1192.84 11350.1 1227.85Z" fill="#CFEB9D"/>
<path opacity="0.995" fill-rule="evenodd" clip-rule="evenodd" d="M11450.6 1203.6C11469.3 1251.89 11488.3 1300.39 11507.8 1349.1C11525.2 1386.1 11544.2 1421.89 11565 1456.48C11647.7 1617.12 11770.1 1737.79 11932.3 1818.48C11967.8 1832.61 12003.6 1845.31 12039.7 1856.59C11992.3 1884.91 11943.8 1911.46 11894.2 1936.26C11847.4 1956.25 11801.2 1976.46 11755.6 1996.89C11703.5 2013.37 11650.4 2025.49 11596.2 2033.26C11525.2 2044.73 11459.4 2032.03 11398.7 1995.15C11356 1957.84 11330 1911.07 11320.7 1854.86C11308.2 1748.43 11315.7 1643.35 11343.2 1539.62C11351.7 1516.1 11357.5 1491.86 11360.5 1466.88C11378 1407.57 11397.6 1348.68 11419.4 1290.21C11427.8 1260.57 11438.2 1231.7 11450.6 1203.6Z" fill="#FBFA8E"/>
<path opacity="0.984" fill-rule="evenodd" clip-rule="evenodd" d="M10764.5 1390.67C10750.2 1497.72 10747.3 1605.1 10755.9 1712.83C10790.2 1671.57 10828.9 1635.2 10871.9 1603.71C11020.8 1510.19 11183.7 1464.58 11360.5 1466.88C11357.5 1491.86 11351.7 1516.1 11343.2 1539.62C11082.4 1621.05 10857.7 1759.61 10669.2 1955.32C10655.3 1970.98 10642 1987.15 10629.4 2003.81C10626.5 2006.88 10623 2008.04 10619 2007.28C10587.7 1929.8 10565.8 1850.13 10553.1 1768.25C10553.1 1727.84 10553.1 1687.43 10553.1 1647.01C10572.8 1519.91 10643.3 1434.46 10764.5 1390.67Z" fill="#83C420"/>
<path opacity="0.984" fill-rule="evenodd" clip-rule="evenodd" d="M11637.8 1428.77C11794.7 1582.35 11976 1699.56 12181.8 1780.38C12243.1 1802.15 12305.5 1820.05 12368.9 1834.07C12295.4 1932.43 12203 2006.91 12091.7 2057.51C12058.7 2070.08 12025.2 2078.74 11991.2 2083.49C11973.9 2083.49 11956.6 2083.49 11939.2 2083.49C11869.7 2072.39 11808.5 2043.52 11755.6 1996.88C11801.2 1976.45 11847.4 1956.24 11894.2 1936.26C11943.8 1911.46 11992.3 1884.91 12039.7 1856.59C12003.6 1845.31 11967.8 1832.61 11932.3 1818.48C11770.1 1737.79 11647.7 1617.12 11565 1456.48C11588.6 1446.43 11612.9 1437.19 11637.8 1428.77Z" fill="#FAE70C"/>
</g>
<defs>
<clipPath id="clip0_2356_709">
<rect width="1815.79" height="959.64" fill="white" transform="translate(3806.1 786.884)"/>
</clipPath>
<clipPath id="clip1_2356_709">
<rect width="1712.3" height="1204.25" fill="white" transform="translate(7258.1 655.168)"/>
</clipPath>
<clipPath id="clip2_2356_709">
<rect width="1815.79" height="1655.85" fill="white" transform="translate(10554.9 429.371)"/>
</clipPath>
</defs>
</svg>
