<svg width="12832" height="2512" viewBox="0 0 12832 2512" fill="none" xmlns="http://www.w3.org/2000/svg">
<g clip-path="url(#clip0_2356_674)">
<path fill-rule="evenodd" clip-rule="evenodd" d="M6 6H2506V2506H6V6Z" fill="#689B0C"/>
<path d="M482.672 1308.22C488.404 1306.85 493.68 1305.29 498.174 1303.27C511.331 1297.27 520.645 1287.76 526.051 1274.79C530.806 1263.45 533.346 1247.94 533.932 1228.72C532.825 1215.1 531.261 1203.69 529.242 1194.57C524.813 1174.63 513.936 1159.38 496.676 1148.96C482.021 1140.03 459.745 1134.95 429.979 1133.64C424.834 1133.38 419.493 1133.25 413.891 1133.25C381.194 1133.25 355.662 1136.9 337.034 1144.07C333.191 1145.57 329.478 1147.13 326.222 1148.96C307.268 1159.38 294.893 1175.09 289.031 1196C283.234 1216.92 280.303 1247.16 280.303 1286.65C280.303 1328.09 283.234 1359.11 289.031 1379.64C294.827 1400.17 307.398 1415.22 326.808 1424.67C345.045 1433.6 373.183 1438.29 410.895 1438.81C413.24 1438.87 415.52 1438.94 417.995 1438.94C436.558 1438.94 455.772 1438.16 475.507 1436.59C495.243 1435.03 511.526 1432.94 524.292 1430.21V1379.05C521.101 1379.38 518.17 1379.64 514.978 1379.97C483.388 1383.16 455.772 1384.85 432.519 1384.85C420.209 1384.85 409.592 1384.46 400.343 1383.81C387.708 1382.83 377.742 1381.27 370.708 1379.05C358.528 1375.21 350.777 1368.3 347.52 1358.4C344.329 1348.82 342.7 1332.53 342.57 1309.91C387.187 1311.41 420.47 1312.19 442.42 1312.19C458.247 1312.26 471.534 1310.83 482.672 1308.22ZM473.749 1226.89C473.749 1238.88 472.511 1247.81 469.971 1253.61C468.082 1258.04 465.021 1261.3 460.852 1263.52C459.55 1264.23 458.117 1264.82 456.619 1265.27C450.236 1267.23 440.27 1268.21 426.722 1268.21H341.919V1259.41C341.919 1247.42 343.026 1237.06 344.98 1228.2C345.762 1222.98 346.608 1218.29 347.716 1214.64C350.777 1204.61 357.095 1197.5 366.604 1193.46C370.122 1191.96 374.681 1190.79 379.826 1189.88C388.424 1188.25 399.106 1187.4 412.198 1187.4C430.37 1187.4 443.853 1189.16 452.58 1192.62C461.308 1196.14 467.561 1203.04 471.469 1213.53C472.316 1215.75 472.967 1218.36 473.618 1221.09C473.684 1222.92 473.749 1224.81 473.749 1226.89Z" fill="white"/>
<path d="M935.218 1275.11C935.218 1248.4 934.046 1229.5 931.701 1218.49C929.356 1207.47 924.667 1200.31 917.437 1196.98C910.272 1193.72 897.767 1192.03 879.985 1192.03C861.748 1192.03 848.396 1195.03 839.928 1201.02C831.396 1207.02 825.794 1216.14 823.059 1228.33C820.323 1240.51 819.021 1258.24 819.021 1281.5V1434.31H757.47V1275.11C757.47 1248.4 756.297 1229.5 753.952 1218.49C751.608 1207.47 746.918 1200.31 739.753 1196.98C732.589 1193.72 720.083 1192.03 702.302 1192.03C684.064 1192.03 670.647 1195.16 661.919 1201.35C653.191 1207.54 647.59 1216.66 645.049 1228.65C642.509 1240.64 641.272 1258.3 641.272 1281.5V1434.31H579.721V1137.94H636.647L638.406 1176.91H642.444C649.023 1162.57 659.379 1151.69 673.513 1144.33C687.647 1136.97 706.535 1133.32 730.114 1133.32C754.539 1133.32 772.971 1136.83 785.607 1143.81C798.178 1150.78 807.166 1161.79 812.638 1176.91H816.741C830.679 1147.85 860.901 1133.32 907.341 1133.32C932.157 1133.32 950.916 1137.55 963.682 1146.09C976.448 1154.62 985.176 1167.01 989.8 1183.3C994.425 1199.59 996.769 1221.68 996.769 1249.5V1434.31H935.218V1275.11Z" fill="white"/>
<path d="M1051.42 1137.94H1108.34L1110.1 1176.91H1114.14C1122.28 1160.23 1134.4 1148.83 1150.42 1142.63C1166.51 1136.44 1185.14 1133.32 1206.43 1133.32C1233.53 1133.32 1254.63 1137.88 1269.74 1147C1284.85 1156.12 1295.67 1171.5 1302.25 1193.2C1308.82 1214.9 1312.15 1245.73 1312.15 1285.61C1312.15 1325.49 1308.95 1356.38 1302.57 1378.27C1296.19 1400.17 1285.64 1415.74 1270.92 1425.06C1256.2 1434.38 1235.48 1439 1208.78 1439C1185.92 1439 1166.96 1436.2 1151.85 1430.6C1136.74 1424.99 1125.15 1414.83 1117.01 1400.1H1112.9V1549.98H1051.35V1137.94H1051.42ZM1227.67 1374.17C1236.79 1370.12 1242.84 1361.85 1245.97 1349.47C1249.03 1337.09 1250.59 1315.97 1250.59 1286.13C1250.59 1256.28 1249.03 1235.1 1245.97 1222.46C1242.84 1209.88 1236.79 1201.54 1227.67 1197.5C1218.55 1193.4 1203.18 1191.38 1181.49 1191.38C1165.2 1191.38 1152.24 1193.53 1142.54 1197.76C1132.83 1202.06 1125.93 1208.45 1121.63 1216.92C1118.11 1224.29 1115.83 1233.41 1114.66 1244.23C1113.49 1255.04 1112.9 1268.99 1112.9 1286.06C1112.9 1303.14 1113.49 1316.95 1114.66 1327.64C1115.83 1338.32 1117.92 1347.32 1121.04 1354.68C1125.28 1363.61 1132.25 1370.06 1141.95 1374.17C1151.59 1378.21 1164.81 1380.29 1181.42 1380.29C1203.24 1380.29 1218.61 1378.27 1227.67 1374.17Z" fill="white"/>
<path d="M1398.45 1425.91C1380.08 1417.17 1368.35 1402.84 1363.34 1382.9C1358.26 1362.96 1355.78 1330.5 1355.78 1285.54C1355.78 1240.97 1358.32 1208.71 1363.34 1188.77C1368.35 1168.83 1380.08 1154.56 1398.45 1146.09C1416.81 1137.55 1446.97 1133.32 1488.79 1133.32C1530.6 1133.32 1560.69 1137.55 1579.13 1146.09C1597.49 1154.62 1609.22 1168.83 1614.23 1188.77C1619.25 1208.71 1621.79 1240.97 1621.79 1285.54C1621.79 1330.5 1619.25 1362.96 1614.23 1382.9C1609.22 1402.84 1597.49 1417.17 1579.13 1425.91C1560.76 1434.64 1530.6 1439 1488.79 1439C1446.97 1439 1416.88 1434.64 1398.45 1425.91ZM1539.33 1377.68C1548.58 1373.25 1554.31 1364.98 1556.46 1352.99C1558.61 1341 1559.65 1318.51 1559.65 1285.61C1559.65 1252.7 1558.61 1230.28 1556.46 1218.49C1554.31 1206.69 1548.58 1198.61 1539.33 1194.38C1530.02 1190.14 1513.21 1187.99 1488.79 1187.99C1464.43 1187.99 1447.56 1190.14 1438.24 1194.38C1428.93 1198.68 1423.2 1206.69 1421.11 1218.49C1418.96 1230.28 1417.92 1252.7 1417.92 1285.61C1417.92 1318.51 1418.96 1341 1421.11 1352.99C1423.26 1364.98 1428.99 1373.25 1438.24 1377.68C1447.56 1382.12 1464.36 1384.4 1488.79 1384.4C1513.15 1384.33 1530.02 1382.12 1539.33 1377.68Z" fill="white"/>
<path d="M1665.88 1137.94H1722.22L1724.57 1190.86H1729.19C1736.16 1169.16 1747.5 1154.17 1763.19 1145.83C1778.89 1137.49 1799.86 1133.32 1826.18 1133.32V1197.24C1799.86 1197.24 1779.61 1201.02 1765.47 1208.58C1751.34 1216.14 1741.44 1227.94 1735.84 1244.03C1730.24 1260.13 1727.43 1282.48 1727.43 1311.15V1434.31H1665.88V1137.94Z" fill="white"/>
<path d="M1925.9 1137.94H1864.35V1434.31H1925.9V1137.94Z" fill="white"/>
<path d="M2231.63 1286C2231.63 1288.41 2231.57 1290.75 2231.57 1293.1C2231.57 1290.56 2231.63 1288.15 2231.63 1285.54C2231.63 1244.1 2228.7 1213.08 2222.9 1192.55C2217.11 1172.02 2204.54 1156.97 2185.19 1147.52C2166.95 1138.59 2138.82 1133.9 2101.04 1133.38C2100.97 1133.38 2100.91 1133.38 2100.84 1133.38C2098.56 1133.32 2096.35 1133.25 2093.94 1133.25C2075.38 1133.25 2056.23 1134.03 2036.43 1135.6C2016.69 1137.16 2000.41 1139.31 1987.64 1141.98V1193.14C1990.83 1192.81 1993.83 1192.55 1996.96 1192.23C2028.55 1189.03 2056.16 1187.34 2079.42 1187.34C2091.66 1187.34 2102.28 1187.73 2111.53 1188.38C2111.59 1188.38 2111.59 1188.38 2111.66 1188.38C2124.29 1189.36 2134.26 1190.86 2141.29 1193.14C2153.47 1196.98 2161.22 1203.89 2164.48 1213.79C2167.67 1223.37 2169.3 1239.67 2169.36 1262.28C2136.41 1261.17 2109.7 1260.45 2089.12 1260.13C2089.05 1260.13 2088.99 1260.13 2088.92 1260.13C2082.02 1260.06 2075.77 1260 2070.3 1260C2070.04 1260 2069.78 1260 2069.58 1260C2064.56 1260 2059.94 1260.19 2055.45 1260.45C2053.43 1260.58 2051.47 1260.71 2049.58 1260.91C2047.7 1261.04 2045.87 1261.3 2044.05 1261.56C2038.84 1262.21 2033.95 1262.99 2029.52 1264.04C2029.46 1264.04 2029.39 1264.1 2029.33 1264.1C2026.85 1264.69 2024.57 1265.34 2022.29 1265.99C2019.3 1266.9 2016.43 1267.88 2013.89 1269.05C2000.73 1275.05 1991.42 1284.56 1986.01 1297.53C1984.78 1300.53 1983.67 1303.85 1982.76 1307.44C1982.24 1309.52 1981.78 1311.8 1981.32 1314.02C1981.06 1315.45 1980.67 1316.89 1980.41 1318.38C1979.89 1321.64 1979.44 1325.1 1979.11 1328.75C1979.04 1329.33 1978.98 1329.85 1978.91 1330.44C1978.59 1334.48 1978.33 1338.78 1978.13 1343.21C1978.13 1343.34 1978.13 1343.41 1978.13 1343.54V1343.6C1979.24 1357.16 1980.74 1368.56 1982.76 1377.68C1987.19 1397.62 1998.06 1412.87 2015.26 1423.3C2029.91 1432.23 2052.19 1437.31 2081.96 1438.61C2081.96 1438.61 2081.96 1438.61 2082.02 1438.61C2087.17 1438.87 2092.44 1439 2098.04 1439C2130.74 1439 2156.27 1435.36 2174.9 1428.19L2175.29 1434.38H2231.63V1286ZM2170.08 1312.85C2170.08 1323.27 2169.1 1332.2 2167.61 1340.28C2167.35 1341.52 2167.28 1343.02 2166.95 1344.19C2166.17 1349.34 2165.33 1354.03 2164.22 1357.61C2161.16 1367.65 2154.84 1374.75 2145.33 1378.79C2141.81 1380.29 2137.25 1381.46 2132.11 1382.38C2123.51 1384.01 2112.83 1384.85 2099.74 1384.85C2081.56 1384.85 2068.08 1383.09 2059.35 1379.64C2050.63 1376.19 2044.37 1369.21 2040.47 1358.72C2039.62 1356.51 2038.97 1353.9 2038.32 1351.23V1351.16C2038.25 1349.27 2038.12 1347.45 2038.12 1345.36C2038.12 1333.37 2039.36 1324.44 2041.9 1318.64C2041.9 1318.58 2041.96 1318.51 2042.03 1318.51C2042.88 1316.62 2043.98 1315 2045.22 1313.56C2045.55 1313.17 2045.87 1312.85 2046.2 1312.52C2047.63 1311.09 2049.19 1309.85 2051.02 1308.87C2052.32 1308.15 2053.75 1307.57 2055.25 1307.11C2061.63 1305.16 2071.6 1304.18 2085.15 1304.18H2169.95V1312.85H2170.08Z" fill="white"/>
<path d="M1828.59 1066.65C1824.61 1069.45 1818.04 1068.22 1815.17 1072.65C1820.45 1074.08 1823.83 1070.37 1829.82 1071.28C1842 1072.97 1849.82 1081.05 1861.81 1084.12C1894.83 1092.52 1922.9 1073.43 1942.38 1058.38C1951.69 1051.14 1960.22 1041.24 1969.41 1030.68C1977.16 1021.75 1985.04 1007.48 1989.86 997.056C1995.26 985.457 1998.06 972.424 2007.25 962.649C2007.25 962.324 2007.25 961.933 2007.25 961.672C2000.08 967.341 1956.12 1001.42 1901.8 1034.4C1842.46 1070.37 1828.59 1066.65 1828.59 1066.65Z" fill="white"/>
<path d="M1992.2 969.687C1982.69 972.229 1978.65 971.772 1963.15 974.705C1953.58 976.53 1944.26 979.006 1935.28 981.417C1887.21 994.124 1851.12 1014.78 1828.59 1066.65C1828.59 1066.65 1842.53 1070.43 1901.86 1034.33C1956.12 1001.36 2000.08 967.276 2007.31 961.607C2007.31 961.346 2007.25 961.151 2006.92 961.085C2001.71 963.301 1997.61 968.188 1992.2 969.687Z" fill="#B3BF34"/>
</g>
<rect x="3" y="3" width="2506" height="2506" rx="7" stroke="#A6A5A5" stroke-width="6"/>
<g clip-path="url(#clip1_2356_674)">
<path fill-rule="evenodd" clip-rule="evenodd" d="M3446 6H5946V2506H3446V6Z" fill="#F37321"/>
<path d="M4694.85 1963.87C4562.17 1963.69 4432.28 1925.83 4320.28 1854.71C4208.29 1783.58 4118.81 1682.11 4062.26 1562.11C4055.36 1542.27 4056.02 1520.6 4064.11 1501.22C4072.19 1481.85 4087.14 1466.13 4106.09 1457.08C4125.04 1448.04 4146.66 1446.29 4166.82 1452.19C4186.97 1458.08 4204.25 1471.19 4215.33 1489.02C4258.35 1579.83 4326.27 1656.56 4411.19 1710.3C4496.11 1764.03 4594.55 1792.56 4695.04 1792.56C4795.54 1792.56 4893.97 1764.03 4978.89 1710.3C5063.81 1656.56 5131.73 1579.83 5174.75 1489.02C5185.84 1471.19 5203.12 1458.08 5223.27 1452.19C5243.43 1446.29 5265.05 1448.04 5284 1457.08C5302.95 1466.13 5317.89 1481.85 5325.98 1501.22C5334.07 1520.6 5334.73 1542.27 5327.83 1562.11C5273.56 1677.52 5188.75 1775.9 5082.57 1846.58C4976.4 1917.27 4852.9 1957.56 4725.47 1963.1L4694.85 1963.87Z" fill="white"/>
<path d="M5300.66 1332.53H4091.34C4069.65 1331.07 4049.31 1321.43 4034.46 1305.56C4019.61 1289.68 4011.34 1268.75 4011.34 1247.01C4011.34 1225.27 4019.61 1204.34 4034.46 1188.46C4049.31 1172.58 4069.65 1162.94 4091.34 1161.49H5208.05C5190.33 1051.25 5138.28 949.415 5059.29 870.491C4980.3 791.566 4878.41 739.58 4768.15 721.94C4657.88 704.3 4544.86 721.907 4445.18 772.25C4345.51 822.594 4264.27 903.106 4213.04 1002.32C4202.53 1022.61 4184.39 1037.9 4162.61 1044.83C4140.83 1051.75 4117.19 1049.74 4096.89 1039.24C4076.59 1028.74 4061.3 1010.6 4054.37 988.822C4047.44 967.044 4049.46 943.406 4059.96 923.11C4132.47 783.796 4249.65 672.846 4392.73 608.032C4535.8 543.219 4696.5 528.293 4849.06 565.646C5001.63 602.999 5137.25 690.469 5234.19 814.045C5331.12 937.62 5383.77 1090.15 5383.7 1247.2C5383.71 1269.44 5375.04 1290.8 5359.53 1306.74C5344.01 1322.67 5322.89 1331.93 5300.66 1332.53Z" fill="white"/>
</g>
<rect x="3443" y="3" width="2506" height="2506" rx="7" stroke="#A6A5A5" stroke-width="6"/>
<rect x="6883" y="3" width="2506" height="2506" rx="7" fill="#FAFAFA"/>
<rect x="6883" y="3" width="2506" height="2506" rx="7" stroke="#A6A5A5" stroke-width="6"/>
<path fill-rule="evenodd" clip-rule="evenodd" d="M9226.66 1040.55C9260.8 1040.55 9249.63 1071.39 9249.63 1071.39L9191.63 1231.52C9187.25 1159.6 9165.15 1138.4 9077.49 1138.4C8977.85 1138.4 8963.76 1175.21 8963.76 1259.63C8963.76 1350.76 8983.03 1379.49 9077.49 1379.49C9101.39 1379.49 9122.25 1379 9139.5 1375.55L9115.8 1440.97C9104.63 1471.79 9070.5 1471.79 9070.5 1471.79H8887.58C8920.33 1458.99 8932.26 1431.24 8932.26 1376.36V1141.11H8873.06L8875.39 1176.56H8873.5C8858.46 1145.6 8831.21 1138.4 8796.43 1138.4C8704.79 1138.4 8701.97 1193.62 8701.97 1265.9C8701.97 1335.05 8711.82 1379.49 8796.43 1379.49C8826.5 1379.49 8858.01 1374.1 8873.5 1343.12H8874.91V1388.03C8874.91 1428.44 8864.13 1438.29 8813.82 1438.29C8780.45 1438.29 8767.77 1433.38 8767.77 1401.05H8712.3C8710.16 1441.13 8723.86 1461.57 8747.1 1471.79H8145.8C8111.64 1471.79 8122.81 1440.97 8122.81 1440.97L8180.33 1282.1C8183.83 1355.45 8207.37 1379.49 8293.52 1379.49C8364.03 1379.49 8408.67 1375.92 8408.67 1301.83H8349.45C8349.45 1336.85 8326.42 1336.38 8293.52 1336.38C8240.42 1336.38 8239.01 1320.23 8239.01 1269.51H8408.67C8408.67 1166.7 8395.06 1138.4 8293.52 1138.4C8266.01 1138.4 8245.17 1141.32 8229.2 1147.2L8256.65 1071.38C8267.81 1040.55 8301.97 1040.55 8301.97 1040.55H8611.26V1172.53H8608.89C8596.2 1143.79 8564.72 1138.4 8534.65 1138.4C8450.03 1138.4 8440.16 1182.85 8440.16 1251.99C8440.16 1324.28 8442.99 1379.49 8534.65 1379.49C8569.42 1379.49 8596.69 1372.31 8611.72 1341.34H8613.58L8611.26 1376.8H8670.47V1040.55H9226.66ZM8349.45 1233.58H8239.01C8239.01 1191.84 8242.28 1181.5 8293.52 1181.5C8341.94 1181.5 8349.45 1185.1 8349.45 1233.58ZM8552.03 1336.38C8497.98 1336.38 8499.39 1305.42 8499.39 1251.99C8499.39 1192.73 8511.14 1181.5 8552.03 1181.5C8603.25 1181.5 8610.3 1201.72 8610.3 1251.99C8610.3 1308.11 8612.66 1336.38 8552.03 1336.38ZM8813.82 1336.38C8761.2 1336.38 8761.2 1305.42 8761.2 1251.99C8761.2 1192.73 8772.94 1181.5 8813.82 1181.5C8865.05 1181.5 8873.06 1201.72 8873.06 1251.99C8873.06 1308.11 8873.06 1336.38 8813.82 1336.38ZM9077.49 1181.5C9125.9 1181.5 9133.42 1185.09 9133.42 1233.58H9022.97C9022.97 1191.81 9026.26 1181.5 9077.49 1181.5ZM9133.42 1301.83C9133.42 1336.85 9110.38 1336.38 9077.49 1336.38C9024.38 1336.38 9022.97 1320.23 9022.97 1269.51H9177.9L9166.21 1301.83H9133.42Z" fill="#EE2837"/>
<path fill-rule="evenodd" clip-rule="evenodd" d="M7179.7 1205.33C7179.7 1177.05 7164.19 1177.05 7132.68 1177.05C7101.21 1177.05 7079.58 1177.05 7079.58 1208.04C7079.58 1231.39 7086.17 1232.28 7137.87 1234.51C7196.15 1237.22 7247.84 1233.18 7247.84 1309.51C7247.84 1373.26 7195.19 1379.53 7132.68 1379.53C7065.49 1379.53 7020.37 1379.53 7020.37 1302.79H7079.58C7080.51 1336.89 7088.99 1340.94 7132.68 1340.94C7167.95 1340.94 7188.62 1341.83 7188.62 1309.51C7188.62 1288.85 7187.22 1278.53 7127.52 1277.61C7036.8 1276.28 7020.37 1264.6 7020.37 1204.45C7020.37 1139.8 7069.25 1138.44 7132.68 1138.44C7181.12 1138.44 7238.92 1139.33 7238.92 1205.33H7179.7ZM7399.17 1138.44C7502.11 1138.44 7515.29 1167.62 7515.29 1259.23C7515.29 1350.35 7502.11 1379.53 7399.17 1379.53C7296.25 1379.53 7283.1 1350.35 7283.1 1259.23C7283.1 1167.62 7296.25 1138.44 7399.17 1138.44ZM7342.3 1259.68C7342.3 1322.51 7346.55 1336.42 7399.17 1336.42C7451.81 1336.42 7456.05 1322.51 7456.05 1259.68C7456.05 1195.92 7451.81 1181.54 7399.17 1181.54C7346.55 1181.54 7342.3 1195.92 7342.3 1259.68ZM7624.77 1376.84H7565.57V1040.12H7624.77V1376.84ZM7844.74 1347.22H7843.33C7831.58 1378.64 7795.38 1379.53 7766.73 1379.53C7710.79 1379.53 7674.61 1368.33 7674.61 1304.57C7674.61 1247.99 7705.61 1232.28 7766.73 1232.28C7796.81 1232.28 7826.42 1232.73 7840.51 1259.23H7842.39V1228.69C7842.39 1190.52 7839.11 1177.05 7789.76 1177.05C7763.89 1177.05 7743.22 1179.29 7743.22 1209.83H7683.99C7683.99 1141.14 7733.34 1138.44 7789.76 1138.44C7868.71 1138.44 7901.61 1150.13 7901.61 1229.14V1376.84H7842.39L7844.74 1347.22ZM7733.81 1304.57C7733.81 1337.79 7747.93 1340.94 7787.85 1340.94C7819.37 1340.94 7842.39 1338.24 7842.39 1304.57C7842.39 1271.79 7817.01 1270.89 7787.85 1270.89C7757.8 1270.89 7733.81 1270.89 7733.81 1304.57ZM7956.12 1141.14H8013.94L8012.52 1172.13H8014.87C8026.62 1146.08 8052 1138.44 8080.67 1138.44C8132.85 1138.44 8145.53 1168.07 8145.53 1212.52V1231.39H8090.08V1219.24C8090.08 1195.46 8087.73 1181.54 8059.99 1181.54C8024.74 1181.54 8014.4 1200.85 8015.33 1231.39V1376.84H7956.12V1141.14Z" fill="#040606"/>
<g clip-path="url(#clip2_2356_674)">
<path fill-rule="evenodd" clip-rule="evenodd" d="M10326 6H12826V2506H10326V6Z" fill="#E82127"/>
<path d="M11575.7 2130.92L11824.3 747.914C12061.3 747.914 12136.1 773.617 12146.9 878.528C12146.9 878.528 12305.9 819.899 12386 700.827C12073.1 557.424 11758.7 550.957 11758.7 550.957L11575.3 771.953L11575.7 771.925L11392.3 550.922C11392.3 550.922 11077.9 557.396 10765 700.799C10845.1 819.872 11004.2 878.5 11004.2 878.5C11015 773.582 11089.7 747.879 11325.1 747.713L11575.7 2130.92Z" fill="white"/>
<path d="M11575.6 487.471C11828.5 485.558 12118.1 526.171 12414.4 653.929C12454 583.413 12464.2 552.248 12464.2 552.248C12140.2 425.474 11836.8 382.088 11575.6 381C11314.3 382.088 11010.9 425.481 10687 552.248C10687 552.248 10701.5 590.635 10736.8 653.929C11033.1 526.171 11322.6 485.558 11575.6 487.471H11575.6Z" fill="white"/>
</g>
<rect x="10323" y="3" width="2506" height="2506" rx="7" stroke="#A6A5A5" stroke-width="6"/>
<defs>
<clipPath id="clip0_2356_674">
<rect x="6" y="6" width="2500" height="2500" rx="4" fill="white"/>
</clipPath>
<clipPath id="clip1_2356_674">
<rect x="3446" y="6" width="2500" height="2500" rx="4" fill="white"/>
</clipPath>
<clipPath id="clip2_2356_674">
<rect x="10326" y="6" width="2500" height="2500" rx="4" fill="white"/>
</clipPath>
</defs>
</svg>
